<svg width="24" height="24" viewBox="0 0 24 24" fill="none" xmlns="http://www.w3.org/2000/svg">
<path d="M7.06342 1.96209C7.12905 1.96188 7.12905 1.96188 7.19601 1.96166C7.34162 1.96126 7.48722 1.96119 7.63282 1.96112C7.73766 1.9609 7.84249 1.96066 7.94733 1.96041C8.23151 1.9598 8.51569 1.95949 8.79987 1.95929C8.97777 1.95915 9.15567 1.95896 9.33356 1.95875C9.82737 1.95818 10.3212 1.95769 10.815 1.95753C10.8465 1.95752 10.8781 1.95751 10.9106 1.9575C10.958 1.95749 10.958 1.95749 11.0064 1.95747C11.0704 1.95745 11.1345 1.95743 11.1985 1.95741C11.2303 1.9574 11.2621 1.95739 11.2948 1.95738C11.8086 1.95719 12.3223 1.95638 12.8361 1.95528C13.3652 1.95417 13.8943 1.9536 14.4235 1.95353C14.7199 1.95348 15.0163 1.95321 15.3127 1.95237C15.592 1.95159 15.8712 1.9515 16.1505 1.95191C16.2523 1.95194 16.3541 1.95174 16.4559 1.95128C17.8998 1.94504 19.1826 2.21675 20.2969 3.18742C20.3278 3.21159 20.3586 3.23576 20.3904 3.26066C21.3584 4.03967 21.8686 5.28192 22.0186 6.48333C22.0588 6.8827 22.0507 7.28506 22.0494 7.68596C22.0496 7.79086 22.0499 7.89576 22.0502 8.00067C22.0508 8.28289 22.0506 8.5651 22.0501 8.84732C22.0498 9.14431 22.0501 9.4413 22.0503 9.73829C22.0506 10.2686 22.0502 10.7989 22.0495 11.3293C22.0488 11.8082 22.0489 12.2871 22.0496 12.766C22.0503 13.3248 22.0506 13.8836 22.0502 14.4425C22.05 14.7373 22.0499 15.0321 22.0504 15.327C22.0508 15.6043 22.0505 15.8816 22.0497 16.159C22.0495 16.26 22.0496 16.3611 22.0499 16.4622C22.0521 17.2291 22.031 18.0193 21.7412 18.7411C21.7271 18.7776 21.713 18.8141 21.6985 18.8516C21.4837 19.3898 21.1905 19.857 20.8125 20.2968C20.7883 20.3278 20.764 20.3588 20.7391 20.3907C19.9594 21.3579 18.7184 21.8688 17.5168 22.0185C17.1161 22.0587 16.7124 22.0502 16.3102 22.0486C16.205 22.0487 16.0997 22.0489 15.9944 22.0491C15.7112 22.0496 15.4281 22.0491 15.1449 22.0485C14.8472 22.048 14.5494 22.0482 14.2517 22.0483C13.7522 22.0483 13.2527 22.0478 12.7532 22.0469C12.2409 22.046 11.7286 22.0457 11.2162 22.046C10.5961 22.0463 9.97594 22.0461 9.3558 22.0455C9.11993 22.0453 8.88406 22.0453 8.64818 22.0454C8.37027 22.0455 8.09236 22.0451 7.81445 22.0443C7.71291 22.0441 7.61137 22.0441 7.50982 22.0442C6.84713 22.045 6.20066 22.0316 5.56055 21.8378C5.52757 21.8279 5.4946 21.818 5.46062 21.8077C4.16119 21.3955 3.11411 20.4711 2.48456 19.2714C2.01416 18.3284 1.94734 17.3521 1.95056 16.3139C1.95037 16.209 1.95011 16.1041 1.94981 15.9992C1.94917 15.717 1.94941 15.4347 1.94986 15.1525C1.95022 14.8555 1.94989 14.5585 1.94967 14.2615C1.9494 13.7312 1.94983 13.2009 1.95055 12.6706C1.95118 12.1916 1.95107 11.7127 1.95042 11.2338C1.94966 10.675 1.94939 10.1162 1.9498 9.55738C1.95002 9.26255 1.95005 8.96772 1.94959 8.67288C1.94918 8.39554 1.94947 8.11822 1.95027 7.84088C1.95046 7.73981 1.95041 7.63875 1.9501 7.53768C1.94794 6.77071 1.96902 5.98049 2.25879 5.25871C2.27287 5.22225 2.28696 5.18578 2.30147 5.14822C2.51629 4.61008 2.8095 4.14288 3.1875 3.70305C3.21173 3.67205 3.23596 3.64105 3.26093 3.60911C4.02909 2.65613 5.29755 2.10857 6.49171 1.97881C6.68233 1.96239 6.8722 1.96189 7.06342 1.96209ZM4.68329 5.12266C4.05979 5.87441 4.01024 6.68344 4.01306 7.61564C4.01287 7.72195 4.01262 7.82827 4.01231 7.93458C4.01167 8.22202 4.01192 8.50946 4.01236 8.79691C4.01272 9.09844 4.01239 9.39996 4.01217 9.70149C4.0119 10.2401 4.01233 10.7788 4.01305 11.3174C4.01368 11.8048 4.01357 12.2922 4.01292 12.7796C4.01217 13.3469 4.01189 13.9143 4.0123 14.4816C4.01252 14.7815 4.01255 15.0813 4.01209 15.3811C4.01168 15.6631 4.01196 15.945 4.01277 16.227C4.01296 16.3301 4.01291 16.4333 4.0126 16.5365C4.00998 17.4935 4.13341 18.3116 4.81935 19.0284C5.49302 19.7047 6.23035 19.9809 7.17492 19.9875C7.32186 19.9877 7.46879 19.9873 7.61573 19.9869C7.72204 19.9871 7.82835 19.9873 7.93466 19.9876C8.22211 19.9883 8.50955 19.988 8.79699 19.9876C9.09852 19.9872 9.40004 19.9875 9.70157 19.9878C10.2402 19.988 10.7788 19.9876 11.3175 19.9869C11.8049 19.9862 12.2923 19.9864 12.7797 19.987C13.347 19.9878 13.9144 19.988 14.4817 19.9876C14.7816 19.9874 15.0814 19.9874 15.3812 19.9878C15.6632 19.9882 15.9451 19.988 16.2271 19.9871C16.3302 19.987 16.4334 19.987 16.5366 19.9873C17.4935 19.9899 18.3116 19.8665 19.0284 19.1806C19.7207 18.491 19.9808 17.7358 19.9876 16.7746C19.9878 16.6285 19.9874 16.4824 19.9869 16.3363C19.9871 16.2304 19.9874 16.1246 19.9877 16.0187C19.9883 15.7327 19.9881 15.4468 19.9876 15.1608C19.9873 14.8607 19.9876 14.5606 19.9878 14.2605C19.9881 13.7245 19.9877 13.1885 19.987 12.6526C19.9863 12.1676 19.9864 11.6826 19.9871 11.1977C19.9878 10.633 19.9881 10.0683 19.9877 9.50368C19.9875 9.20532 19.9875 8.90696 19.9879 8.60859C19.9883 8.32807 19.988 8.04755 19.9872 7.76702C19.987 7.66438 19.9871 7.56174 19.9874 7.4591C19.99 6.50377 19.8653 5.68693 19.1807 4.97149C18.507 4.29518 17.7697 4.01898 16.8251 4.01236C16.6781 4.0121 16.5312 4.01253 16.3843 4.01297C16.278 4.01278 16.1717 4.01253 16.0653 4.01223C15.7779 4.01159 15.4905 4.01183 15.203 4.01228C14.9015 4.01264 14.6 4.01231 14.2984 4.01209C13.7598 4.01181 13.2212 4.01225 12.6825 4.01297C12.1951 4.01359 11.7077 4.01348 11.2203 4.01284C10.653 4.01208 10.0856 4.01181 9.51828 4.01222C9.21845 4.01244 8.91862 4.01247 8.61879 4.012C8.33684 4.0116 8.0549 4.01188 7.77295 4.01269C7.66978 4.01288 7.56661 4.01283 7.46344 4.01251C6.30541 4.00934 5.47642 4.25541 4.68329 5.12266Z" fill="white"/>
<path d="M8.50195 7.08067C8.76071 7.22506 8.90533 7.40309 9 7.68711C9.00467 7.80171 9.00673 7.91497 9.00658 8.02957C9.00672 8.06471 9.00686 8.09985 9.00701 8.13606C9.00741 8.25416 9.00748 8.37226 9.00755 8.49036C9.00777 8.5749 9.00801 8.65944 9.00826 8.74398C9.00888 8.9739 9.00918 9.20382 9.00939 9.43375C9.00952 9.57736 9.00971 9.72096 9.00992 9.86457C9.01057 10.3138 9.01102 10.763 9.0112 11.2122C9.01141 11.7309 9.01223 12.2497 9.01359 12.7684C9.0146 13.1693 9.01508 13.5701 9.01514 13.971C9.01519 14.2104 9.01547 14.4499 9.0163 14.6894C9.01707 14.9146 9.01718 15.1399 9.01676 15.3652C9.01673 15.4478 9.01693 15.5305 9.0174 15.6131C9.01799 15.726 9.01772 15.8389 9.01723 15.9518C9.01761 15.9844 9.01798 16.0171 9.01837 16.0507C9.01558 16.3268 8.93158 16.5067 8.75684 16.7164C8.47471 16.9547 8.23284 17.049 7.8598 17.033C7.53891 16.9876 7.33885 16.8324 7.13562 16.5877C6.99359 16.3701 6.97069 16.1705 6.97184 15.9157C6.97163 15.8809 6.97142 15.8462 6.9712 15.8103C6.9706 15.694 6.97068 15.5777 6.97076 15.4614C6.97048 15.378 6.97016 15.2945 6.9698 15.211C6.96898 14.9844 6.96876 14.7577 6.9687 14.5311C6.96863 14.3895 6.96843 14.2478 6.96818 14.1062C6.96731 13.6119 6.96693 13.1175 6.967 12.6232C6.96706 12.1627 6.96607 11.7022 6.96459 11.2417C6.96336 10.8461 6.96286 10.4505 6.96292 10.0549C6.96295 9.81876 6.96268 9.58259 6.96169 9.34643C6.96078 9.12423 6.96077 8.90205 6.96145 8.67985C6.96155 8.59845 6.96133 8.51705 6.96076 8.43564C6.95538 7.60987 6.95538 7.60987 7.25372 7.26414C7.27989 7.24323 7.30605 7.22233 7.33301 7.20079C7.35905 7.17915 7.3851 7.15752 7.41193 7.13523C7.74984 6.91464 8.14015 6.91626 8.50195 7.08067Z" fill="white"/>
<path d="M12.4893 10.0605C12.7868 10.2371 12.9448 10.4984 13.0313 10.8281C13.0507 11.0035 13.051 11.1774 13.0502 11.3538C13.0505 11.4052 13.0508 11.4566 13.0512 11.5096C13.052 11.6788 13.0518 11.848 13.0516 12.0172C13.0518 12.1353 13.052 12.2535 13.0523 12.3716C13.0527 12.619 13.0526 12.8664 13.0522 13.1137C13.0516 13.3987 13.0523 13.6836 13.0535 13.9685C13.0547 14.2438 13.0548 14.5191 13.0545 14.7944C13.0545 14.911 13.0548 15.0275 13.0554 15.1441C13.0561 15.3074 13.0556 15.4707 13.0548 15.6341C13.0552 15.6818 13.0557 15.7294 13.0561 15.7786C13.0526 16.1232 12.9998 16.4669 12.7617 16.7319C12.4869 16.9848 12.2273 17.0375 11.8597 17.0303C11.5797 17.0012 11.4105 16.8934 11.2119 16.6992C10.9787 16.3527 10.948 16.0533 10.9498 15.6462C10.9495 15.5948 10.9492 15.5433 10.9488 15.4904C10.948 15.3212 10.9482 15.152 10.9484 14.9828C10.9482 14.8646 10.948 14.7465 10.9477 14.6283C10.9473 14.381 10.9474 14.1336 10.9478 13.8862C10.9484 13.6013 10.9477 13.3164 10.9465 13.0315C10.9453 12.7562 10.9452 12.4809 10.9455 12.2056C10.9455 12.089 10.9452 11.9724 10.9446 11.8559C10.9439 11.6925 10.9444 11.5292 10.9452 11.3659C10.9448 11.3182 10.9443 11.2705 10.9439 11.2214C10.9474 10.8768 11.0002 10.533 11.2383 10.2681C11.5792 9.95441 12.0594 9.86439 12.4893 10.0605Z" fill="white"/>
<path d="M16.4678 13.0579C16.7395 13.2152 16.9137 13.4403 17.0156 13.7346C17.0282 13.8564 17.0282 13.8564 17.0292 13.9876C17.0298 14.0371 17.0304 14.0865 17.0311 14.1375C17.0312 14.1905 17.0313 14.2435 17.0314 14.298C17.0317 14.353 17.032 14.408 17.0323 14.4646C17.0328 14.5808 17.033 14.697 17.033 14.8132C17.0332 14.9903 17.0349 15.1674 17.0367 15.3446C17.037 15.4576 17.0371 15.5707 17.0372 15.6838C17.0379 15.7365 17.0386 15.7892 17.0393 15.8435C17.0372 16.2026 16.9876 16.4561 16.7463 16.7357C16.7201 16.7566 16.6939 16.7775 16.667 16.7991C16.6279 16.8315 16.6279 16.8315 16.5881 16.8646C16.3222 17.0382 16.059 17.0556 15.75 17.0159C15.416 16.9101 15.2201 16.7551 15.0469 16.4534C14.999 16.3099 14.9935 16.2106 14.9924 16.0603C14.992 16.0086 14.9915 15.957 14.9911 15.9038C14.9908 15.8201 14.9908 15.8201 14.9905 15.7347C14.9902 15.6773 14.9899 15.6199 14.9897 15.5607C14.9892 15.4392 14.9889 15.3176 14.9887 15.1961C14.9883 15.0103 14.9868 14.8245 14.9854 14.6387C14.985 14.5206 14.9848 14.4026 14.9846 14.2845C14.984 14.229 14.9835 14.1734 14.9829 14.1162C14.9838 13.7703 15.0164 13.5555 15.2432 13.2835C15.6016 12.9808 16.0187 12.8595 16.4678 13.0579Z" fill="white"/>
</svg>
